<svg xmlns="http://www.w3.org/2000/svg" xmlns:xlink="http://www.w3.org/1999/xlink" width="500" zoomAndPan="magnify" viewBox="0 0 375 374.999991" height="500" preserveAspectRatio="xMidYMid meet" version="1.0"><defs><g/><clipPath id="2400037f4e"><path d="M 215.941406 168.382812 L 222.691406 168.382812 L 222.691406 175.132812 L 215.941406 175.132812 Z M 215.941406 168.382812 " clip-rule="nonzero"/></clipPath><clipPath id="bdf98c5853"><path d="M 148.53125 168.382812 L 155.28125 168.382812 L 155.28125 175.132812 L 148.53125 175.132812 Z M 148.53125 168.382812 " clip-rule="nonzero"/></clipPath><clipPath id="4be26dac28"><path d="M 308 175 L 364 175 L 364 231 L 308 231 Z M 308 175 " clip-rule="nonzero"/></clipPath><clipPath id="14746f9f76"><path d="M 326.476562 175.644531 L 363.375 194.085938 L 344.933594 230.984375 L 308.035156 212.542969 Z M 326.476562 175.644531 " clip-rule="nonzero"/></clipPath><clipPath id="16770d610b"><path d="M 322.660156 158.699219 L 385.050781 189.882812 L 353.871094 252.273438 L 291.476562 221.089844 Z M 322.660156 158.699219 " clip-rule="nonzero"/></clipPath><clipPath id="fefea89459"><path d="M 8 168 L 63 168 L 63 224 L 8 224 Z M 8 168 " clip-rule="nonzero"/></clipPath><clipPath id="3b0b440ecb"><path d="M 46.402344 168.835938 L 62.746094 206.707031 L 24.871094 223.050781 L 8.527344 185.175781 Z M 46.402344 168.835938 " clip-rule="nonzero"/></clipPath><clipPath id="be87bb2e31"><path d="M 54.398438 153.414062 L 82.03125 217.457031 L 17.992188 245.09375 L -9.644531 181.050781 Z M 54.398438 153.414062 " clip-rule="nonzero"/></clipPath></defs><rect x="-37.5" width="450" fill="#ffffff" y="-37.499999" height="449.999989" fill-opacity="1"/><rect x="-37.5" width="450" fill="#ffffff" y="-37.499999" height="449.999989" fill-opacity="1"/><g fill="#f1929a" fill-opacity="1"><g transform="translate(56.35979, 217.045884)"><g><path d="M 2.25 -37.496094 L 2.25 0 L 10.597656 0 L 10.597656 -37.496094 Z M 2.25 -37.496094 "/></g></g></g><g fill="#f1929a" fill-opacity="1"><g transform="translate(68.807783, 217.045884)"><g><path d="M 36.347656 -30.695312 C 32.148438 -30.695312 28.695312 -28.597656 25.496094 -26.199219 C 24.648438 -28.746094 22.796875 -30.695312 19.296875 -30.695312 C 15.597656 -30.695312 11.949219 -28.898438 9.050781 -26.648438 L 9.050781 -30.695312 L 2.25 -30.695312 L 2.25 0 L 9.050781 0 L 9.050781 -25.449219 C 11.5 -27.496094 14.597656 -29.148438 17.796875 -29.246094 C 25.246094 -29.445312 24.597656 -20.199219 22.148438 -15.398438 C 20.699219 -12.597656 19.296875 -10 19.296875 -6.800781 L 19.296875 0 L 26.097656 0 L 26.097656 -21.597656 C 26.097656 -22.796875 25.996094 -24.046875 25.746094 -25.199219 C 28.398438 -27.296875 31.296875 -29.097656 34.847656 -29.246094 C 42.296875 -29.445312 41.644531 -20.199219 39.195312 -15.398438 C 37.746094 -12.597656 36.347656 -10 36.347656 -6.800781 L 36.347656 0 L 43.144531 0 L 43.144531 -21.597656 C 43.144531 -26.148438 41.746094 -30.695312 36.347656 -30.695312 Z M 36.347656 -30.695312 "/></g></g></g><g fill="#f1929a" fill-opacity="1"><g transform="translate(113.650758, 217.045884)"><g><path d="M 8.847656 -23.847656 C 15.25 -23.847656 15.347656 -29.246094 19.699219 -29.597656 C 23.496094 -29.847656 25.699219 -26.296875 23.046875 -23.199219 C 21.246094 -21.097656 17.699219 -20.046875 15.398438 -19.296875 C 9.648438 -17.449219 2.148438 -15.148438 2 -7.898438 C 1.898438 -3.851562 4.648438 0 9.847656 0 C 13.148438 0 16.25 -1.300781 19.097656 -3.148438 L 19.097656 0 L 25.898438 0 L 25.898438 -23.449219 C 25.898438 -28.445312 23.398438 -30.695312 18.699219 -30.695312 L 2.699219 -30.695312 L 2.699219 -23.847656 Z M 19.097656 -4.148438 C 15.046875 -1.601562 8.949219 -1.398438 8.75 -7.597656 C 8.550781 -14.046875 13.898438 -17.148438 19.097656 -19.449219 Z M 19.097656 -4.148438 "/></g></g></g><g fill="#f1929a" fill-opacity="1"><g transform="translate(141.246415, 217.045884)"><g><path d="M 25.046875 -2.199219 L 25.046875 -30.695312 L 12.949219 -30.695312 C 4.550781 -30.695312 1.148438 -24.449219 1.148438 -15.347656 C 1.148438 -6.25 4.550781 0 12.949219 0 L 18 0 C 17.449219 3.601562 15.648438 5.898438 11.148438 5.898438 C 10.449219 5.898438 9.800781 5.847656 9.148438 5.800781 L 9.148438 6.597656 C 10.148438 6.75 11.148438 6.800781 12.148438 6.800781 C 17.898438 6.800781 25.046875 4.550781 25.046875 -2.199219 Z M 18.25 -0.949219 L 15.75 -0.949219 C 8.949219 -0.949219 8 -9.597656 8 -15.347656 C 8 -21.046875 8.75 -29.746094 15.75 -29.746094 L 18.25 -29.746094 Z M 18.25 -0.949219 "/></g></g></g><g fill="#f1929a" fill-opacity="1"><g transform="translate(167.942207, 217.045884)"><g><path d="M 8.898438 0 L 8.898438 -30.695312 L 2.101562 -30.695312 L 2.101562 0 Z M 5.5 -37.496094 C 3.851562 -37.496094 2.5 -36.144531 2.5 -34.496094 C 2.5 -32.796875 3.851562 -31.445312 5.5 -31.445312 C 7.199219 -31.445312 8.550781 -32.796875 8.550781 -34.496094 C 8.550781 -36.144531 7.199219 -37.496094 5.5 -37.496094 Z M 5.5 -37.496094 "/></g></g></g><g fill="#f1929a" fill-opacity="1"><g transform="translate(178.540488, 217.045884)"><g><path d="M 9.050781 0 L 9.050781 -25.449219 C 11.5 -27.496094 14.597656 -29.148438 17.796875 -29.246094 C 25.246094 -29.445312 24.597656 -20.199219 22.148438 -15.398438 C 20.699219 -12.597656 19.296875 -10 19.296875 -6.800781 L 19.296875 0 L 26.097656 0 L 26.097656 -21.597656 C 26.097656 -26.148438 24.699219 -30.695312 19.296875 -30.695312 C 15.597656 -30.695312 11.949219 -28.898438 9.050781 -26.648438 L 9.050781 -30.695312 L 2.25 -30.695312 L 2.25 0 Z M 9.050781 0 "/></g></g></g><g fill="#f1929a" fill-opacity="1"><g transform="translate(206.336103, 217.045884)"><g><path d="M 8.847656 -23.847656 C 15.25 -23.847656 15.347656 -29.246094 19.699219 -29.597656 C 23.496094 -29.847656 25.699219 -26.296875 23.046875 -23.199219 C 21.246094 -21.097656 17.699219 -20.046875 15.398438 -19.296875 C 9.648438 -17.449219 2.148438 -15.148438 2 -7.898438 C 1.898438 -3.851562 4.648438 0 9.847656 0 C 13.148438 0 16.25 -1.300781 19.097656 -3.148438 L 19.097656 0 L 25.898438 0 L 25.898438 -23.449219 C 25.898438 -28.445312 23.398438 -30.695312 18.699219 -30.695312 L 2.699219 -30.695312 L 2.699219 -23.847656 Z M 19.097656 -4.148438 C 15.046875 -1.601562 8.949219 -1.398438 8.75 -7.597656 C 8.550781 -14.046875 13.898438 -17.148438 19.097656 -19.449219 Z M 19.097656 -4.148438 "/></g></g></g><g fill="#f1929a" fill-opacity="1"><g transform="translate(233.931755, 217.045884)"><g><path d="M 3.449219 -37.496094 L 3.449219 -32.398438 L 1 -32.398438 L 1 -31.445312 L 3.449219 -31.445312 L 3.449219 0 L 10.300781 0 L 10.300781 -31.445312 L 12.75 -31.445312 L 12.75 -32.398438 L 10.300781 -32.398438 L 10.300781 -37.496094 Z M 3.449219 -37.496094 "/></g></g></g><g fill="#f1929a" fill-opacity="1"><g transform="translate(247.179617, 217.045884)"><g><path d="M 8.898438 0 L 8.898438 -30.695312 L 2.101562 -30.695312 L 2.101562 0 Z M 5.5 -37.496094 C 3.851562 -37.496094 2.5 -36.144531 2.5 -34.496094 C 2.5 -32.796875 3.851562 -31.445312 5.5 -31.445312 C 7.199219 -31.445312 8.550781 -32.796875 8.550781 -34.496094 C 8.550781 -36.144531 7.199219 -37.496094 5.5 -37.496094 Z M 5.5 -37.496094 "/></g></g></g><g fill="#f1929a" fill-opacity="1"><g transform="translate(257.777898, 217.045884)"><g><path d="M 1.648438 -15.347656 C 1.648438 -21.949219 5.75 -30.695312 13.597656 -30.695312 C 20.148438 -30.695312 25.496094 -23.796875 25.496094 -15.347656 C 25.496094 -8.75 21.398438 0 13.597656 0 C 7 0 1.648438 -6.847656 1.648438 -15.347656 Z M 20.699219 -15.296875 L 14.347656 -24.996094 C 9.050781 -33.046875 1 -23.746094 6.398438 -15.5 L 12.847656 -5.699219 C 18.097656 2.351562 26.148438 -6.949219 20.699219 -15.296875 Z M 20.699219 -15.296875 "/></g></g></g><g fill="#f1929a" fill-opacity="1"><g transform="translate(284.423702, 217.045884)"><g><path d="M 9.050781 0 L 9.050781 -25.449219 C 11.5 -27.496094 14.597656 -29.148438 17.796875 -29.246094 C 25.246094 -29.445312 24.597656 -20.199219 22.148438 -15.398438 C 20.699219 -12.597656 19.296875 -10 19.296875 -6.800781 L 19.296875 0 L 26.097656 0 L 26.097656 -21.597656 C 26.097656 -26.148438 24.699219 -30.695312 19.296875 -30.695312 C 15.597656 -30.695312 11.949219 -28.898438 9.050781 -26.648438 L 9.050781 -30.695312 L 2.25 -30.695312 L 2.25 0 Z M 9.050781 0 "/></g></g></g><g clip-path="url(#2400037f4e)"><path fill="#000000" d="M 219.390625 168.382812 C 219.054688 171.226562 218.78125 171.5 215.941406 171.835938 C 215.945312 171.835938 215.953125 171.835938 215.957031 171.839844 C 218.78125 172.171875 219.054688 172.449219 219.390625 175.285156 C 219.726562 172.445312 220 172.171875 222.84375 171.835938 C 220 171.5 219.726562 171.226562 219.390625 168.382812 Z M 219.390625 168.382812 " fill-opacity="1" fill-rule="nonzero"/></g><g clip-path="url(#bdf98c5853)"><path fill="#000000" d="M 151.984375 168.382812 C 151.644531 171.226562 151.375 171.5 148.53125 171.835938 C 148.539062 171.835938 148.542969 171.835938 148.550781 171.839844 C 151.375 172.171875 151.648438 172.449219 151.984375 175.285156 C 152.320312 172.445312 152.589844 172.171875 155.433594 171.835938 C 152.589844 171.5 152.320312 171.226562 151.984375 168.382812 Z M 151.984375 168.382812 " fill-opacity="1" fill-rule="nonzero"/></g><g fill="#069d69" fill-opacity="1"><g transform="translate(138.098477, 157.457846)"><g><path d="M 0.523438 -15.03125 C 1.449219 -15.03125 1.910156 -14.945312 2.265625 -14.378906 L 2.265625 -1.425781 C 2.265625 -0.316406 1.785156 -0.273438 0.777344 -0.273438 L 0.777344 0 L 4.03125 0 L 4.03125 -0.273438 C 3.042969 -0.273438 2.5625 -0.316406 2.539062 -1.363281 L 2.539062 -13.835938 C 2.5625 -13.792969 2.582031 -13.730469 2.601562 -13.6875 L 7.871094 0 L 8.167969 0 L 13.582031 -14.484375 L 13.582031 -1.425781 C 13.582031 -0.316406 13.097656 -0.273438 12.089844 -0.273438 L 12.089844 0 L 17.382812 0 L 17.382812 -0.273438 C 16.375 -0.273438 15.890625 -0.316406 15.890625 -1.425781 L 15.890625 -13.960938 C 15.914062 -14.988281 16.394531 -15.03125 17.382812 -15.03125 L 17.382812 -15.304688 L 13.582031 -15.304688 L 9.089844 -3.273438 L 4.386719 -15.304688 L 0.523438 -15.304688 Z M 0.523438 -15.03125 "/></g></g></g><g fill="#069d69" fill-opacity="1"><g transform="translate(156.10643, 157.457846)"><g><path d="M 0.839844 -15.03125 C 1.847656 -15.03125 2.332031 -14.90625 2.332031 -13.769531 L 2.332031 -5.457031 C 2.332031 -2.183594 3.714844 0.25 8.1875 0.25 C 13.097656 0.25 13.519531 -3.296875 13.519531 -5.3125 L 13.519531 -13.769531 C 13.519531 -14.90625 14.234375 -15.03125 15.007812 -15.03125 L 15.007812 -15.304688 L 11.753906 -15.304688 L 11.753906 -15.03125 C 12.699219 -15.03125 13.183594 -14.90625 13.246094 -13.980469 L 13.246094 -5.3125 C 13.246094 -1.324219 11.355469 -0.230469 8.691406 -0.230469 C 6.171875 -0.230469 4.640625 -1.953125 4.640625 -5.457031 L 4.640625 -13.769531 C 4.640625 -14.90625 5.121094 -15.03125 6.128906 -15.03125 L 6.128906 -15.304688 L 0.839844 -15.304688 Z M 0.839844 -15.03125 "/></g></g></g><g fill="#069d69" fill-opacity="1"><g transform="translate(171.637755, 157.457846)"><g><path d="M 1.050781 0 L 1.324219 0 C 1.324219 -0.523438 1.679688 -0.734375 2.289062 -0.734375 C 3.296875 -0.734375 3.988281 0.25 6.277344 0.25 C 9.824219 0.25 10.9375 -1.511719 10.9375 -3.652344 C 10.9375 -8.144531 3.378906 -8.816406 3.378906 -12.929688 C 3.378906 -14.148438 4.050781 -15.050781 5.730469 -15.050781 C 8.0625 -15.050781 9.824219 -13.164062 9.824219 -10.347656 L 10.097656 -10.347656 L 10.097656 -15.304688 L 9.824219 -15.304688 C 9.824219 -14.671875 9.65625 -14.464844 9.109375 -14.464844 C 8.25 -14.464844 7.578125 -15.535156 5.4375 -15.535156 C 3.378906 -15.535156 1.070312 -14.359375 1.070312 -11.921875 C 1.070312 -7.871094 8.835938 -6.277344 8.835938 -2.792969 C 8.835938 -0.921875 7.496094 -0.273438 5.917969 -0.273438 C 3.335938 -0.273438 1.324219 -2.097656 1.324219 -6.296875 L 1.050781 -6.296875 Z M 1.050781 0 "/></g></g></g><g fill="#069d69" fill-opacity="1"><g transform="translate(183.41218, 157.457846)"><g><path d="M 0.628906 0 L 11.988281 0 L 13.476562 -6.023438 L 13.203125 -6.023438 C 12.238281 -2.8125 10.8125 -0.273438 7.222656 -0.273438 C 5.082031 -0.273438 4.410156 -0.441406 4.410156 -1.40625 L 4.410156 -7.894531 L 6.824219 -7.894531 C 9.238281 -7.894531 9.238281 -6.570312 9.238281 -4.429688 L 9.507812 -4.429688 L 9.507812 -11.378906 L 9.238281 -11.378906 C 9.238281 -9.257812 9.089844 -8.1875 6.824219 -8.167969 L 4.410156 -8.167969 L 4.410156 -13.898438 C 4.410156 -14.882812 5.269531 -15.007812 8.292969 -15.007812 C 10.664062 -15.007812 11.546875 -14.378906 12.324219 -11.988281 L 12.59375 -11.988281 L 11.484375 -15.304688 L 0.628906 -15.304688 L 0.628906 -15.03125 C 1.636719 -15.03125 2.078125 -14.882812 2.078125 -13.898438 L 2.097656 -1.195312 C 2.015625 -0.417969 1.554688 -0.273438 0.628906 -0.273438 Z M 0.628906 0 "/></g></g></g><g fill="#069d69" fill-opacity="1"><g transform="translate(197.432359, 157.457846)"><g><path d="M 0.839844 -15.03125 C 1.847656 -15.03125 2.332031 -14.90625 2.332031 -13.769531 L 2.332031 -5.457031 C 2.332031 -2.183594 3.714844 0.25 8.1875 0.25 C 13.097656 0.25 13.519531 -3.296875 13.519531 -5.3125 L 13.519531 -13.769531 C 13.519531 -14.90625 14.234375 -15.03125 15.007812 -15.03125 L 15.007812 -15.304688 L 11.753906 -15.304688 L 11.753906 -15.03125 C 12.699219 -15.03125 13.183594 -14.90625 13.246094 -13.980469 L 13.246094 -5.3125 C 13.246094 -1.324219 11.355469 -0.230469 8.691406 -0.230469 C 6.171875 -0.230469 4.640625 -1.953125 4.640625 -5.457031 L 4.640625 -13.769531 C 4.640625 -14.90625 5.121094 -15.03125 6.128906 -15.03125 L 6.128906 -15.304688 L 0.839844 -15.304688 Z M 0.839844 -15.03125 "/></g></g></g><g fill="#069d69" fill-opacity="1"><g transform="translate(212.963684, 157.457846)"><g><path d="M 0.523438 -15.03125 C 1.449219 -15.03125 1.910156 -14.945312 2.265625 -14.378906 L 2.265625 -1.425781 C 2.265625 -0.316406 1.785156 -0.273438 0.777344 -0.273438 L 0.777344 0 L 4.03125 0 L 4.03125 -0.273438 C 3.042969 -0.273438 2.5625 -0.316406 2.539062 -1.363281 L 2.539062 -13.835938 C 2.5625 -13.792969 2.582031 -13.730469 2.601562 -13.6875 L 7.871094 0 L 8.167969 0 L 13.582031 -14.484375 L 13.582031 -1.425781 C 13.582031 -0.316406 13.097656 -0.273438 12.089844 -0.273438 L 12.089844 0 L 17.382812 0 L 17.382812 -0.273438 C 16.375 -0.273438 15.890625 -0.316406 15.890625 -1.425781 L 15.890625 -13.960938 C 15.914062 -14.988281 16.394531 -15.03125 17.382812 -15.03125 L 17.382812 -15.304688 L 13.582031 -15.304688 L 9.089844 -3.273438 L 4.386719 -15.304688 L 0.523438 -15.304688 Z M 0.523438 -15.03125 "/></g></g></g><g clip-path="url(#4be26dac28)"><g clip-path="url(#14746f9f76)"><g clip-path="url(#16770d610b)"><path fill="#004aad" d="M 340.019531 207.476562 C 344.476562 209.683594 348.953125 211.84375 353.460938 213.949219 C 358.726562 216.402344 364.019531 218.796875 369.40625 221.003906 C 364.40625 218.023438 359.3125 215.226562 354.191406 212.484375 C 349.804688 210.144531 345.386719 207.863281 340.949219 205.625 C 345.65625 204.03125 350.351562 202.394531 355.027344 200.699219 C 360.484375 198.707031 365.921875 196.65625 371.289062 194.410156 C 365.644531 195.835938 360.066406 197.460938 354.507812 199.144531 C 349.75 200.59375 345.015625 202.101562 340.292969 203.65625 C 342.496094 199.203125 344.660156 194.722656 346.765625 190.21875 C 349.214844 184.953125 351.609375 179.660156 353.820312 174.273438 C 350.835938 179.273438 348.039062 184.363281 345.300781 189.484375 C 342.960938 193.875 340.675781 198.289062 338.4375 202.730469 C 336.847656 198.019531 335.210938 193.324219 333.515625 188.648438 C 331.527344 183.191406 329.476562 177.757812 327.226562 172.386719 C 328.648438 178.03125 330.273438 183.609375 331.957031 189.167969 C 333.40625 193.925781 334.914062 198.664062 336.46875 203.382812 C 332.015625 201.175781 327.539062 199.015625 323.035156 196.910156 C 317.769531 194.457031 312.476562 192.066406 307.085938 189.859375 C 312.085938 192.84375 317.179688 195.640625 322.300781 198.378906 C 326.6875 200.71875 331.101562 203.003906 335.542969 205.238281 C 330.832031 206.828125 326.136719 208.464844 321.464844 210.164062 C 316.007812 212.152344 310.570312 214.203125 305.203125 216.453125 C 310.847656 215.027344 316.425781 213.40625 321.984375 211.722656 C 326.742188 210.273438 331.476562 208.765625 336.199219 207.207031 C 333.992188 211.664062 331.828125 216.140625 329.726562 220.644531 C 327.273438 225.910156 324.878906 231.203125 322.671875 236.589844 C 325.660156 231.59375 328.457031 226.5 331.195312 221.378906 C 333.535156 216.992188 335.816406 212.574219 338.054688 208.132812 C 339.644531 212.84375 341.28125 217.539062 342.980469 222.214844 C 344.96875 227.667969 347.019531 233.105469 349.265625 238.476562 C 347.839844 232.832031 346.21875 227.253906 344.535156 221.695312 C 343.085938 216.9375 341.578125 212.199219 340.019531 207.476562 Z M 340.019531 207.476562 " fill-opacity="1" fill-rule="nonzero"/></g></g></g><g fill="#5c00b8" fill-opacity="1"><g transform="translate(175.513015, 179.85264)"><g><path d="M 0.390625 -5.671875 C 0.390625 -6.660156 0.523438 -7.5625 0.796875 -8.375 C 1.066406 -9.195312 1.476562 -9.90625 2.03125 -10.5 C 2.582031 -11.09375 3.21875 -11.539062 3.9375 -11.84375 C 4.664062 -12.144531 5.46875 -12.296875 6.34375 -12.296875 C 8.113281 -12.296875 9.554688 -11.695312 10.671875 -10.5 C 11.773438 -9.300781 12.328125 -7.6875 12.328125 -5.65625 C 12.328125 -3.632812 11.773438 -2.03125 10.671875 -0.84375 C 9.554688 0.363281 8.113281 0.96875 6.34375 0.96875 C 4.582031 0.96875 3.148438 0.363281 2.046875 -0.84375 C 0.941406 -2.03125 0.390625 -3.640625 0.390625 -5.671875 Z M 3.703125 -5.671875 C 3.703125 -4.128906 3.976562 -2.929688 4.53125 -2.078125 C 5.039062 -1.304688 5.648438 -0.921875 6.359375 -0.921875 C 7.066406 -0.921875 7.675781 -1.304688 8.1875 -2.078125 C 8.75 -2.929688 9.03125 -4.125 9.03125 -5.65625 C 9.03125 -7.195312 8.75 -8.398438 8.1875 -9.265625 C 7.675781 -10.035156 7.066406 -10.421875 6.359375 -10.421875 C 5.648438 -10.421875 5.039062 -10.035156 4.53125 -9.265625 C 3.976562 -8.398438 3.703125 -7.203125 3.703125 -5.671875 Z M 3.703125 -5.671875 "/></g></g></g><g fill="#5c00b8" fill-opacity="1"><g transform="translate(187.970541, 179.85264)"><g><path d="M 5.328125 -14.484375 L 5.328125 -11.984375 L 7.953125 -11.984375 L 7.953125 -10.203125 L 5.328125 -10.203125 L 5.328125 -1.125 L 7.453125 -1.125 L 7.453125 0.65625 L 0.53125 0.65625 L 0.53125 -1.125 L 2.125 -1.125 L 2.125 -10.203125 L 0.53125 -10.203125 L 0.53125 -11.984375 L 2.203125 -11.984375 C 2.359375 -13.828125 2.757812 -15.238281 3.40625 -16.21875 C 3.613281 -16.53125 3.835938 -16.796875 4.078125 -17.015625 C 4.316406 -17.242188 4.578125 -17.441406 4.859375 -17.609375 C 5.304688 -17.847656 5.785156 -17.96875 6.296875 -17.96875 C 6.648438 -17.96875 6.972656 -17.9375 7.265625 -17.875 C 7.566406 -17.8125 7.847656 -17.710938 8.109375 -17.578125 C 8.367188 -17.453125 8.59375 -17.296875 8.78125 -17.109375 C 8.957031 -16.910156 9.109375 -16.710938 9.234375 -16.515625 C 9.359375 -16.328125 9.453125 -16.117188 9.515625 -15.890625 C 9.578125 -15.671875 9.609375 -15.445312 9.609375 -15.21875 C 9.609375 -14.582031 9.476562 -14.050781 9.21875 -13.625 C 8.96875 -13.195312 8.570312 -12.984375 8.03125 -12.984375 C 7.820312 -12.984375 7.617188 -13 7.421875 -13.03125 C 7.234375 -13.070312 7.046875 -13.132812 6.859375 -13.21875 C 6.671875 -13.3125 6.507812 -13.414062 6.375 -13.53125 L 5.984375 -13.859375 L 6.21875 -14.328125 C 6.320312 -14.554688 6.398438 -14.757812 6.453125 -14.9375 C 6.503906 -15.125 6.53125 -15.285156 6.53125 -15.421875 C 6.53125 -15.628906 6.507812 -15.773438 6.46875 -15.859375 C 6.4375 -15.953125 6.398438 -16.007812 6.359375 -16.03125 C 6.316406 -16.050781 6.234375 -16.0625 6.109375 -16.0625 C 5.972656 -16.0625 5.859375 -16.035156 5.765625 -15.984375 C 5.472656 -15.816406 5.328125 -15.316406 5.328125 -14.484375 Z M 5.328125 -14.484375 "/></g></g></g><g clip-path="url(#fefea89459)"><g clip-path="url(#3b0b440ecb)"><g clip-path="url(#be87bb2e31)"><path fill="#004aad" d="M 36.253906 201.90625 C 38.242188 206.464844 40.273438 211.003906 42.363281 215.515625 C 44.8125 220.78125 47.320312 226.023438 50.015625 231.183594 C 48.113281 225.679688 46.019531 220.261719 43.867188 214.867188 C 42.019531 210.25 40.113281 205.660156 38.160156 201.085938 C 42.785156 202.90625 47.433594 204.675781 52.101562 206.390625 C 57.554688 208.382812 63.035156 210.316406 68.589844 212.058594 C 63.355469 209.511719 58.042969 207.160156 52.707031 204.867188 C 48.132812 202.910156 43.539062 201.011719 38.925781 199.160156 C 43.480469 197.171875 48.019531 195.140625 52.53125 193.050781 C 57.796875 190.601562 63.039062 188.097656 68.199219 185.398438 C 62.699219 187.300781 57.277344 189.394531 51.882812 191.546875 C 47.265625 193.398438 42.675781 195.304688 38.105469 197.257812 C 39.921875 192.628906 41.695312 187.984375 43.410156 183.316406 C 45.402344 177.859375 47.335938 172.382812 49.074219 166.824219 C 46.527344 172.0625 44.171875 177.375 41.882812 182.710938 C 39.925781 187.28125 38.027344 191.875 36.175781 196.488281 C 34.191406 191.933594 32.160156 187.394531 30.070312 182.882812 C 27.621094 177.617188 25.113281 172.375 22.414062 167.214844 C 24.316406 172.71875 26.410156 178.140625 28.5625 183.535156 C 30.410156 188.148438 32.316406 192.742188 34.269531 197.3125 C 29.644531 195.492188 25 193.71875 20.332031 192.007812 C 14.878906 190.015625 9.398438 188.082031 3.839844 186.34375 C 9.078125 188.890625 14.390625 191.242188 19.726562 193.535156 C 24.296875 195.492188 28.890625 197.390625 33.503906 199.238281 C 28.949219 201.222656 24.410156 203.257812 19.898438 205.347656 C 14.632812 207.792969 9.390625 210.300781 4.234375 213 C 9.734375 211.101562 15.15625 209.007812 20.550781 206.855469 C 25.167969 205.003906 29.757812 203.097656 34.328125 201.144531 C 32.511719 205.769531 30.738281 210.417969 29.027344 215.085938 C 27.035156 220.539062 25.097656 226.019531 23.359375 231.574219 C 25.902344 226.339844 28.253906 221.027344 30.546875 215.6875 C 32.503906 211.117188 34.402344 206.523438 36.253906 201.90625 Z M 36.253906 201.90625 " fill-opacity="1" fill-rule="nonzero"/></g></g></g></svg>